<?xml version="1.0" encoding="UTF-8"?>
<svg xmlns="http://www.w3.org/2000/svg" width="468" height="277" viewBox="0 0 468 277" role="img" aria-label="GLUMBRERAS - Academia Preuniversitaria">
  <title>GLUMBRERAS - Academia Preuniversitaria</title>
  <!-- Red chevron banner background -->
  <path d="M0,0 H468 V243 L234.0,277 0,243 Z" fill="#E5191B"/>
  
  <!-- White divider line -->
  <rect x="24" y="170" width="420" height="4" fill="#FFFFFF" rx="2" ry="2"/>

  <!-- Gear (white) -->
  <path d="M 139.000,95.000 L 127.501,106.388 L 131.765,122.000 L 116.113,126.113 L 112.000,141.765 L 96.388,137.501 L 85.000,149.000 L 73.612,137.501 L 58.000,141.765 L 53.887,126.113 L 38.235,122.000 L 42.499,106.388 L 31.000,95.000 L 42.499,83.612 L 38.235,68.000 L 53.887,63.887 L 58.000,48.235 L 73.612,52.499 L 85.000,41.000 L 96.388,52.499 L 112.000,48.235 L 116.113,63.887 L 131.765,68.000 L 127.501,83.612 Z" fill="#FFFFFF"/>
  <!-- Inner red disc to match the logo style -->
  <circle cx="85" cy="95" r="42" fill="#E5191B"/>
  <!-- Inner bore (small white circle) -->
  <circle cx="85" cy="95" r="26" fill="#FFFFFF"/>

  <!-- White 'G' letter placed over the red inner disc -->
  <text x="85" y="113" text-anchor="middle" font-family="Arial, Helvetica, sans-serif" font-weight="900" font-size="64" fill="#FFFFFF">G</text>

  <!-- Brand text to the right of the mark -->
  <text x="155" y="103" font-family="Arial, Helvetica, sans-serif" font-weight="900" font-size="44" fill="#FFFFFF" letter-spacing="1.5">
    LUMBRERAS
  </text>

  <!-- Subtitle -->
  <text x="155" y="131" font-family="Arial, Helvetica, sans-serif" font-weight="700" font-size="16" fill="#FFFFFF" letter-spacing="2">
    ACADEMIA PREUNIVERSITARIA
  </text>
</svg>
